<svg width="1280" height="720" viewBox="0 0 1280 720" xmlns="http://www.w3.org/2000/svg">
<polygon opacity="1" fill="#0000FF" points="640,360 640,60 641,60 641,60 642,60 642,60 643,60 644,60 644,60 645,60 645,60 646,60 647,60 647,60 648,60 648,60 649,60 650,60 650,60 651,60 651,60 652,60 653,60 653,60 654,60 655,60 655,60 656,60 656,60 657,60 658,61 658,61 659,61 659,61 660,61 661,61 661,61 662,61 662,61 663,61 664,61 664,61 665,61 665,61 666,61 667,61 667,61 668,61 668,61 669,61 670,61 670,62 671,62 671,62 672,62 673,62 673,62 674,62 674,62 675,62 676,62 676,62 677,62 677,62 678,62 679,62 679,63 680,63 680,63 681,63 682,63 682,63 683,63 683,63 684,63 685,63 685,63 686,64 686,64 687,64 688,64 688,64 689,64 689,64 690,64 691,64 691,64 692,64 692,65 693,65 694,65 694,65 695,65 695,65 696,65 696,65 697,65 698,66 698,66 699,66 699,66 700,66 701,66 701,66 702,66 702,67 703,67 704,67 704,67 705,67 705,67 706,67 707,67 707,68 708,68 708,68 709,68 709,68 710,68 711,68 711,69 712,69 712,69 713,69 714,69 714,69 715,69 715,70 716,70 717,70 717,70 718,70 718,70 719,71 719,71 720,71 721,71 721,71 722,71 722,72 723,72 724,72 724,72 725,72 725,72 726,73 726,73 727,73 728,73 728,73 729,73 729,74 730,74 730,74 731,74 732,74 732,75 733,75 733,75 734,75 734,75 735,75 736,76 736,76 737,76 737,76 738,76 739,77 739,77 740,77 740,77 741,77 741,78 742,78 742,78 743,78 744,78 744,79 745,79 745,79 746,79 746,80 747,80 748,80 748,80 749,80 749,81 750,81 750,81 751,81 752,82 752,82 753,82 753,82 754,82 754,83 755,83 755,83 756,83 757,84 757,84 758,84 758,84 759,85 759,85 760,85 760,85 761,85 762,86 762,86 763,86 763,86 764,87 764,87 765,87 765,87 766,88 767,88 767,88 768,88 768,89 769,89 769,89 770,90 770,90 771,90 771,90 772,91 773,91 773,91 774,91 774,92 775,92 775,92 776,92 776,93 777,93 777,93 778,94 778,94 779,94 780,94 780,95 781,95 781,95 782,96 782,96 783,96 783,96 784,97 784,97 785,97 785,98 786,98 786,98 787,98 787,99 788,99 789,99 789,100 790,100 790,100 791,101 791,101 792,101 792,101 793,102 793,102 794,102 794,103 795,103 795,103 796,104 796,104 797,104 797,105 798,105 798,105 799,106 799,106 800,106 800,107 801,107 801,107 802,107 802,108 803,108 803,108 804,109 805,109 805,109 806,110 806,110 807,110 807,111 808,111 808,111 809,112 809,112 810,112 810,113 811,113 811,114 812,114 812,114 813,115 813,115 814,115 814,116 814,116 815,116 815,117 816,117 816,117 817,118 817,118 818,118 818,119 819,119 819,120 820,120 820,120 821,121 821,121 822,121 822,122 823,122 823,122 824,123 824,123 825,124 825,124 826,124 826,125 827,125 827,125 828,126 828,126 828,127 829,127 829,127 830,128 830,128 831,128 831,129 832,129 832,130 833,130 833,130 834,131 834,131 834,132 835,132 835,132 836,133 836,133 837,134 837,134 838,134 838,135 839,135 839,136 840,136 840,136 840,137 841,137 841,138 842,138 842,138 843,139 843,139 844,140 844,140 844,140 845,141 845,141 846,142 846,142 847,143 847,143 848,143 848,144 848,144 849,145 849,145 850,145 850,146 851,146 851,147 851,147 852,148 852,148 853,148 853,149 854,149 854,150 854,150 855,151 855,151 856,151 856,152 856,152 857,153 857,153 858,154 858,154 859,155 859,155 859,155 860,156 860,156 861,157 861,157 861,158 862,158 862,159 863,159 863,159 863,160 864,160 864,161 865,161 865,162 865,162 866,163 866,163 867,163 867,164 867,164 868,165 868,165 869,166 869,166 869,167 870,167 870,168 871,168 871,169 871,169 872,169 872,170 873,170 873,171 873,171 874,172 874,172 874,173 875,173 875,174 876,174 876,175 876,175 877,176 877,176 877,177 878,177 878,178 878,178 879,178 879,179 880,179 880,180 880,180 881,181 881,181 881,182 882,182 882,183 882,183 883,184 883,184 884,185 884,185 884,186 885,186 885,187 885,187 886,188 886,188 886,189 887,189 887,190 887,190 888,191 888,191 888,192 889,192 889,193 889,193 890,194 890,194 890,195 891,195 891,196 891,196 892,197 892,197 892,198 893,198 893,199 893,199 894,200 894,200 894,201 895,201 895,202 895,202 896,203 896,203 896,204 897,204 897,205 897,206 897,206 898,207 898,207 898,208 899,208 899,209 899,209 900,210 900,210 900,211 901,211 901,212 901,212 901,213 902,213 902,214 902,214 903,215 903,215 903,216 903,217 904,217 904,218 904,218 905,219 905,219 905,220 905,220 906,221 906,221 906,222 907,222 907,223 907,223 907,224 908,225 908,225 908,226 909,226 909,227 909,227 909,228 910,228 910,229 910,229 910,230 911,231 911,231 911,232 911,232 912,233 912,233 912,234 912,234 913,235 913,235 913,236 913,237 914,237 914,238 914,238 914,239 915,239 915,240 915,240 915,241 916,242 916,242 916,243 916,243 917,244 917,244 917,245 917,245 917,246 918,247 918,247 918,248 918,248 919,249 919,249 919,250 919,250 920,251 920,252 920,252 920,253 920,253 921,254 921,254 921,255 921,256 921,256 922,257 922,257 922,258 922,258 922,259 923,260 923,260 923,261 923,261 923,262 924,262 924,263 924,264 924,264 924,265 925,265 925,266 925,266 925,267 925,268 926,268 926,269 926,269 926,270 926,270 926,271 927,272 927,272 927,273 927,273 927,274 928,274 928,275 928,276 928,276 928,277 928,277 929,278 929,279 929,279 929,280 929,280 929,281 930,281 930,282 930,283 930,283 930,284 930,284 930,285 931,286 931,286 931,287 931,287 931,288 931,288 931,289 932,290 932,290 932,291 932,291 932,292 932,293 932,293 933,294 933,294 933,295 933,296 933,296 933,297 933,297 934,298 934,299 934,299 934,300 934,300 934,301 934,301 934,302 934,303 935,303 935,304 935,304 935,305 935,306 935,306 935,307 935,307 935,308 936,309 936,309 936,310 936,310 936,311 936,312 936,312 936,313 936,313 936,314 937,315 937,315 937,316 937,316 937,317 937,318 937,318 937,319 937,319 937,320 937,321 937,321 938,322 938,322 938,323 938,324 938,324 938,325 938,325 938,326 938,327 938,327 938,328 938,328 938,329 938,330 939,330 939,331 939,331 939,332 939,333 939,333 939,334 939,334 939,335 939,336 939,336 939,337 939,337 939,338 939,339 939,339 939,340 939,340 939,341 939,342 939,342 940,343 940,343 940,344 940,345 940,345 940,346 940,346 940,347 940,348 940,348 940,349 940,349 940,350 940,351 940,351 940,352 940,352 940,353 940,354 940,354 940,355 940,356 940,356 940,357 940,357 940,358 940,359 940,359 940,360 940,360 940,361 940,362 940,362 940,363 940,363 940,364 940,365 940,365 940,366 940,366 940,367 940,368 940,368 940,369 940,369 940,370 940,371 940,371 940,372 940,372 940,373 940,374 940,374 940,375 940,375 940,376 940,377 940,377 939,378 939,378 939,379 939,380 939,380 939,381 939,381 939,382 939,383 939,383 939,384 939,385 939,385 939,386 939,386 939,387 939,388 939,388 939,389 939,389 939,390 938,391 938,391 938,392 938,392 938,393 938,394 938,394 938,395 938,395 938,396 938,397 938,397 938,398 938,398 937,399 937,400 937,400 937,401 937,401 937,402 937,403 937,403 937,404 937,404 937,405 937,406 936,406 936,407 936,407 936,408 936,409 936,409 936,410 936,410 936,411 936,411 935,412 935,413 935,413 935,414 935,414 935,415 935,416 935,416 935,417 934,417 934,418 934,419 934,419 934,420 934,420 934,421 934,422 933,422 933,423 933,423 933,424 933,425 933,425 933,426 933,426 932,427 932,427 932,428 932,429 932,429 932,430 932,430 931,431 931,432 931,432 931,433 931,433 931,434 931,435 930,435 930,436 930,436 930,437 930,437 930,438 930,439 929,439 929,440 929,440 929,441 929,442 929,442 928,443 928,443 928,444 928,444 928,445 928,446 927,446 927,447 927,447 927,448 927,448 926,449 926,450 926,450 926,451 926,451 926,452 925,453 925,453 925,454 925,454 925,455 924,455 924,456 924,457 924,457 924,458 923,458 923,459 923,459 923,460 923,461 922,461 922,462 922,462 922,463 922,463 921,464 921,465 921,465 921,466 921,466 920,467 920,467 920,468 920,468 919,469 919,470 919,470 919,471 919,471 918,472 918,472 918,473 918,474 917,474 917,475 917,475 917,476 917,476 916,477 916,477 916,478 916,479 915,479 915,480 915,480 915,481 914,481 914,482 914,482 914,483 913,484 913,484 913,485 913,485 912,486 912,486 912,487 912,487 911,488 911,488 911,489 911,490 910,490 910,491 910,491 910,492 909,492 909,493 909,493 908,494 908,494 908,495 908,496 907,496 907,497 907,497 907,498 906,498 906,499 906,499 905,500 905,500 905,501 905,501 904,502 904,502 904,503 903,504 903,504 903,505 903,505 902,506 902,506 902,507 901,507 901,508 901,508 900,509 900,509 900,510 900,510 899,511 899,511 899,512 898,512 898,513 898,514 897,514 897,515 897,515 896,516 896,516 896,517 896,517 895,518 895,518 895,519 894,519 894,520 894,520 893,521 893,521 893,522 892,522 892,523 892,523 891,524 891,524 891,525 890,525 890,526 890,526 889,527 889,527 889,528 888,528 888,529 888,529 887,530 887,530 887,531 886,531 886,532 886,532 885,533 885,533 885,534 884,534 884,535 883,535 883,536 883,536 882,537 882,537 882,538 881,538 881,539 881,539 880,540 880,540 880,541 879,541 879,542 878,542 878,543 878,543 877,543 877,544 877,544 876,545 876,545 875,546 875,546 875,547 874,547 874,548 874,548 873,549 873,549 872,550 872,550 872,551 871,551 871,551 "/>
<text x="925" y="226" dy="0.76em" text-anchor="start" font-family="sans-serif" font-size="40.32258064516129" opacity="1" fill="#FF9800">

</text>
<polygon opacity="1" fill="#00FF00" points="640,360 871,551 871,552 870,552 870,553 870,553 869,554 869,554 868,554 868,555 868,555 867,556 867,556 866,557 866,557 866,558 865,558 865,559 864,559 864,559 864,560 863,560 863,561 862,561 862,562 862,562 861,563 861,563 860,564 860,564 860,564 859,565 859,565 858,566 858,566 858,567 857,567 857,567 856,568 856,568 855,569 855,569 855,570 854,570 854,571 853,571 853,571 852,572 852,572 852,573 851,573 851,574 850,574 850,574 849,575 849,575 849,576 848,576 848,576 847,577 847,577 846,578 846,578 846,579 845,579 845,579 844,580 844,580 843,581 843,581 842,581 842,582 842,582 841,583 841,583 840,583 840,584 839,584 839,585 838,585 838,585 837,586 837,586 837,587 836,587 836,587 835,588 835,588 834,589 834,589 833,589 833,590 832,590 832,591 831,591 831,591 831,592 830,592 830,592 829,593 829,593 828,594 828,594 827,594 827,595 826,595 826,596 825,596 825,596 824,597 824,597 823,597 823,598 822,598 822,598 822,599 821,599 821,600 820,600 820,600 819,601 819,601 818,601 818,602 817,602 817,602 816,603 816,603 815,604 815,604 814,604 814,605 813,605 813,605 812,606 812,606 811,606 811,607 810,607 810,607 809,608 809,608 808,608 808,609 807,609 807,609 806,610 806,610 805,610 805,611 804,611 804,611 803,612 803,612 802,612 802,613 801,613 801,613 800,614 800,614 799,614 799,615 798,615 798,615 797,616 797,616 796,616 796,617 795,617 795,617 794,617 793,618 793,618 792,618 792,619 791,619 791,619 790,620 790,620 789,620 789,621 788,621 788,621 787,621 787,622 786,622 786,622 785,623 785,623 784,623 783,623 783,624 782,624 782,624 781,625 781,625 780,625 780,625 779,626 779,626 778,626 778,627 777,627 777,627 776,627 775,628 775,628 774,628 774,628 773,629 773,629 772,629 772,630 771,630 771,630 770,630 770,631 769,631 768,631 768,631 767,632 767,632 766,632 766,632 765,633 765,633 764,633 763,633 763,634 762,634 762,634 761,634 761,635 760,635 760,635 759,635 758,636 758,636 757,636 757,636 756,637 756,637 755,637 755,637 754,637 753,638 753,638 752,638 752,638 751,639 751,639 750,639 750,639 749,640 748,640 748,640 747,640 747,640 746,641 746,641 745,641 744,641 744,641 743,642 743,642 742,642 742,642 741,642 740,643 740,643 739,643 739,643 738,643 738,644 737,644 736,644 736,644 735,644 735,645 734,645 734,645 733,645 732,645 732,646 731,646 731,646 730,646 730,646 729,646 728,647 728,647 727,647 727,647 726,647 726,648 725,648 724,648 724,648 723,648 723,648 722,649 721,649 721,649 720,649 720,649 719,649 719,650 718,650 717,650 717,650 716,650 716,650 715,650 714,651 714,651 713,651 713,651 712,651 712,651 711,651 710,652 710,652 709,652 709,652 708,652 707,652 707,652 706,653 706,653 705,653 704,653 704,653 703,653 703,653 702,654 702,654 701,654 700,654 700,654 699,654 699,654 698,654 697,654 697,655 696,655 696,655 695,655 694,655 694,655 693,655 693,655 692,655 691,656 691,656 690,656 690,656 689,656 688,656 688,656 687,656 687,656 686,656 685,657 685,657 684,657 684,657 683,657 682,657 682,657 681,657 681,657 680,657 679,657 679,657 678,658 678,658 677,658 676,658 676,658 675,658 675,658 674,658 673,658 673,658 672,658 672,658 671,658 670,658 670,659 669,659 669,659 668,659 667,659 667,659 666,659 666,659 665,659 664,659 664,659 663,659 663,659 662,659 661,659 661,659 660,659 660,659 659,659 658,659 658,659 657,660 657,660 656,660 655,660 655,660 654,660 654,660 653,660 652,660 652,660 651,660 651,660 650,660 649,660 649,660 648,660 648,660 647,660 646,660 646,660 645,660 645,660 644,660 643,660 643,660 642,660 641,660 641,660 640,660 640,660 639,660 638,660 638,660 637,660 637,660 636,660 635,660 635,660 634,660 634,660 633,660 632,660 632,660 631,660 631,660 630,660 629,660 629,660 628,660 628,660 627,660 626,660 626,660 625,660 625,660 624,660 623,660 623,660 622,659 622,659 621,659 620,659 620,659 619,659 619,659 618,659 617,659 617,659 616,659 616,659 615,659 614,659 614,659 613,659 613,659 612,659 611,659 611,659 610,659 610,658 609,658 608,658 608,658 607,658 607,658 606,658 605,658 605,658 604,658 603,658 603,658 602,658 602,658 601,657 600,657 600,657 599,657 599,657 598,657 598,657 597,657 596,657 596,657 595,657 595,657 594,656 593,656 593,656 592,656 592,656 591,656 590,656 590,656 589,656 589,656 588,655 587,655 587,655 586,655 586,655 585,655 584,655 584,655 583,655 583,654 582,654 581,654 581,654 580,654 580,654 579,654 578,654 578,653 577,653 577,653 576,653 575,653 575,653 574,653 574,653 573,652 573,652 572,652 571,652 571,652 570,652 570,652 569,651 568,651 568,651 567,651 567,651 566,651 566,651 565,650 564,650 564,650 563,650 563,650 562,650 561,650 561,649 560,649 560,649 559,649 558,649 558,649 557,648 557,648 556,648 556,648 555,648 554,648 554,647 553,647 553,647 552,647 552,647 551,646 550,646 550,646 549,646 549,646 548,646 548,645 547,645 546,645 546,645 545,645 545,644 544,644 543,644 543,644 542,644 542,643 541,643 541,643 540,643 539,643 539,642 538,642 538,642 537,642 537,642 536,641 536,641 535,641 534,641 534,641 533,640 533,640 532,640 532,640 531,639 530,639 530,639 529,639 529,639 528,638 528,638 527,638 526,638 526,637 525,637 525,637 524,637 524,637 523,636 523,636 522,636 521,636 521,635 520,635 520,635 519,635 519,634 518,634 518,634 517,634 517,633 516,633 515,633 515,633 514,632 514,632 513,632 513,632 512,631 512,631 511,631 510,631 510,630 509,630 509,630 508,630 508,629 507,629 507,629 506,628 506,628 505,628 505,628 504,627 503,627 503,627 502,627 502,626 501,626 501,626 500,625 500,625 499,625 499,625 498,624 498,624 497,624 496,623 496,623 495,623 495,623 494,622 494,622 493,622 493,621 492,621 492,621 491,620 491,620 490,620 490,620 489,619 489,619 488,619 488,618 487,618 486,618 486,617 485,617 485,617 484,617 484,616 483,616 483,616 482,615 482,615 481,615 481,614 480,614 480,614 479,613 479,613 478,613 478,612 477,612 477,612 476,611 476,611 475,611 475,610 474,610 474,610 473,609 473,609 472,609 472,608 471,608 471,608 470,607 470,607 469,607 469,606 468,606 468,606 467,605 467,605 466,605 466,604 465,604 465,604 464,603 464,603 463,602 463,602 462,602 462,601 461,601 461,601 460,600 460,600 459,600 459,599 458,599 458,598 457,598 457,598 457,597 456,597 456,597 455,596 455,596 454,595 454,595 453,595 453,594 452,594 452,594 451,593 451,593 450,592 450,592 449,592 449,591 449,591 448,591 448,590 447,590 447,589 446,589 446,589 445,588 445,588 444,587 444,587 443,587 443,586 443,586 442,585 442,585 441,585 441,584 440,584 440,583 439,583 439,583 438,582 438,582 438,581 437,581 437,581 436,580 436,580 435,579 435,579 434,579 434,578 434,578 433,577 433,577 432,576 432,576 431,576 431,575 431,575 430,574 430,574 429,573 429,573 428,573 428,572 428,572 427,571 427,571 426,570 426,570 425,570 425,569 425,569 424,568 424,568 423,567 423,567 422,567 422,566 422,566 421,565 421,565 420,564 420,564 420,563 419,563 419,563 418,562 418,562 418,561 417,561 417,560 416,560 416,559 416,559 415,559 415,558 414,558 414,557 414,557 413,556 413,556 412,555 412,555 412,554 411,554 411,554 410,553 410,553 410,552 409,552 409,551 408,551 408,550 408,550 407,549 407,549 407,548 406,548 406,547 405,547 405,547 405,546 404,546 404,545 404,545 403,544 403,544 402,543 402,543 402,542 401,542 401,541 401,541 400,540 400,540 399,539 399,539 399,538 398,538 398,537 398,537 397,536 397,536 "/>
<text x="630" y="675" dy="0.76em" text-anchor="start" font-family="sans-serif" font-size="40.32258064516129" opacity="1" fill="#FF9800">

</text>
<polygon opacity="1" fill="#FF9800" points="640,360 397,536 397,536 397,535 396,535 396,534 396,534 395,533 395,533 394,532 394,532 394,531 393,531 393,530 393,530 392,529 392,529 392,528 391,528 391,527 391,527 390,526 390,526 390,525 389,525 389,524 389,524 388,523 388,523 388,522 387,522 387,521 387,521 386,520 386,520 386,519 385,519 385,518 385,518 385,517 384,517 384,516 384,516 383,515 383,515 383,514 382,514 382,513 382,513 381,512 381,512 381,511 380,511 380,510 380,509 380,509 379,508 379,508 379,507 378,507 378,506 378,506 378,505 377,505 377,504 377,504 376,503 376,503 376,502 375,502 375,501 375,500 375,500 374,499 374,499 374,498 374,498 373,497 373,497 373,496 372,496 372,495 372,495 372,494 371,493 371,493 371,492 371,492 370,491 370,491 370,490 369,490 369,489 369,489 369,488 368,487 368,487 368,486 368,486 367,485 367,485 367,484 367,484 366,483 366,483 366,482 366,481 365,481 365,480 365,480 365,479 364,479 364,478 364,478 364,477 364,476 363,476 363,475 363,475 363,474 362,474 362,473 362,473 362,472 361,471 361,471 361,470 361,470 361,469 360,469 360,468 360,467 360,467 359,466 359,466 359,465 359,465 359,464 358,463 358,463 358,462 358,462 358,461 357,461 357,460 357,460 357,459 357,458 356,458 356,457 356,457 356,456 356,456 355,455 355,454 355,454 355,453 355,453 354,452 354,451 354,451 354,450 354,450 354,449 353,449 353,448 353,447 353,447 353,446 353,446 352,445 352,445 352,444 352,443 352,443 351,442 351,442 351,441 351,440 351,440 351,439 351,439 350,438 350,438 350,437 350,436 350,436 350,435 349,435 349,434 349,433 349,433 349,432 349,432 349,431 348,431 348,430 348,429 348,429 348,428 348,428 348,427 347,426 347,426 347,425 347,425 347,424 347,423 347,423 347,422 346,422 346,421 346,421 346,420 346,419 346,419 346,418 346,418 345,417 345,416 345,416 345,415 345,415 345,414 345,413 345,413 345,412 344,412 344,411 344,410 344,410 344,409 344,409 344,408 344,407 344,407 344,406 343,406 343,405 343,404 343,404 343,403 343,403 343,402 343,401 343,401 343,400 343,400 343,399 342,398 342,398 342,397 342,397 342,396 342,395 342,395 342,394 342,394 342,393 342,392 342,392 342,391 342,391 342,390 341,389 341,389 341,388 341,388 341,387 341,386 341,386 341,385 341,385 341,384 341,383 341,383 341,382 341,382 341,381 341,380 341,380 341,379 341,379 341,378 341,377 340,377 340,376 340,376 340,375 340,374 340,374 340,373 340,373 340,372 340,371 340,371 340,370 340,370 340,369 340,368 340,368 340,367 340,367 340,366 340,365 340,365 340,364 340,363 340,363 340,362 340,362 340,361 340,360 340,360 340,359 340,359 340,358 340,357 340,357 340,356 340,356 340,355 340,354 340,354 340,353 340,353 340,352 340,351 340,351 340,350 340,350 340,349 340,348 340,348 340,347 340,347 340,346 340,345 340,345 340,344 340,344 340,343 341,342 341,342 341,341 341,341 341,340 341,339 341,339 341,338 341,338 341,337 341,336 341,336 341,335 341,334 341,334 341,333 341,333 341,332 341,331 341,331 341,330 342,330 342,329 342,328 342,328 342,327 342,327 342,326 342,325 342,325 342,324 342,324 342,323 342,322 342,322 343,321 343,321 343,320 343,319 343,319 343,318 343,318 343,317 343,316 343,316 343,315 343,315 344,314 344,313 344,313 344,312 344,312 344,311 344,311 344,310 344,309 344,309 345,308 345,308 345,307 345,306 345,306 345,305 345,305 345,304 345,303 346,303 346,302 346,302 346,301 346,300 346,300 346,299 346,299 346,298 347,297 347,297 347,296 347,296 347,295 347,294 347,294 348,293 348,293 348,292 348,292 348,291 348,290 348,290 348,289 349,289 349,288 349,287 349,287 349,286 349,286 350,285 350,285 350,284 350,283 350,283 350,282 350,282 351,281 351,280 351,280 351,279 351,279 351,278 352,278 352,277 352,276 352,276 352,275 352,275 353,274 353,273 353,273 353,272 353,272 353,271 354,271 354,270 354,269 354,269 354,268 355,268 355,267 355,267 355,266 355,265 356,265 356,264 356,264 356,263 356,263 356,262 357,261 357,261 357,260 357,260 357,259 358,259 358,258 358,257 358,257 359,256 359,256 359,255 359,255 359,254 360,253 360,253 360,252 360,252 360,251 361,251 361,250 361,249 361,249 362,248 362,248 362,247 362,247 362,246 363,246 363,245 363,244 363,244 364,243 364,243 364,242 364,242 365,241 365,241 365,240 365,239 366,239 366,238 366,238 366,237 367,237 367,236 367,236 367,235 368,234 368,234 368,233 368,233 369,232 369,232 369,231 369,231 370,230 370,230 370,229 370,228 371,228 371,227 371,227 371,226 372,226 372,225 372,225 373,224 373,224 373,223 373,223 374,222 374,221 374,221 374,220 375,220 375,219 375,219 376,218 376,218 376,217 376,217 377,216 377,216 377,215 378,215 378,214 378,213 379,213 379,212 379,212 379,211 380,211 380,210 380,210 381,209 381,209 381,208 382,208 382,207 382,207 382,206 383,206 383,205 383,205 384,204 384,204 384,203 385,203 385,202 385,201 386,201 386,200 386,200 387,199 387,199 387,198 388,198 388,197 388,197 389,196 389,196 389,195 390,195 390,194 390,194 391,193 391,193 391,192 392,192 392,191 392,191 393,190 393,190 393,189 394,189 394,188 394,188 395,187 395,187 395,186 396,186 396,185 396,185 397,184 397,184 397,183 398,183 398,182 399,182 399,181 399,181 400,181 400,180 400,180 401,179 401,179 401,178 402,178 402,177 403,177 403,176 403,176 404,175 404,175 404,174 405,174 405,173 406,173 406,172 406,172 407,171 407,171 407,171 408,170 408,170 409,169 409,169 409,168 410,168 410,167 411,167 411,166 411,166 412,165 412,165 412,164 413,164 413,164 414,163 414,163 414,162 415,162 415,161 416,161 416,160 416,160 417,159 417,159 418,159 418,158 418,158 419,157 419,157 420,156 420,156 421,155 421,155 421,155 422,154 422,154 423,153 423,153 423,152 424,152 424,152 425,151 425,151 426,150 426,150 426,149 427,149 427,149 428,148 428,148 429,147 429,147 429,146 430,146 430,146 431,145 431,145 432,144 432,144 432,143 433,143 433,143 434,142 434,142 435,141 435,141 "/>
<text x="326" y="330" dy="0.76em" text-anchor="start" font-family="sans-serif" font-size="40.32258064516129" opacity="1" fill="#FF9800">

</text>
<polygon opacity="1" fill="#9C27B0" points="640,360 435,141 435,141 436,140 436,140 436,140 437,139 437,139 438,138 438,138 439,138 439,137 440,137 440,136 440,136 441,136 441,135 442,135 442,134 443,134 443,134 444,133 444,133 445,132 445,132 445,132 446,131 446,131 447,130 447,130 448,130 448,129 449,129 449,129 450,128 450,128 451,127 451,127 451,127 452,126 452,126 453,125 453,125 454,125 454,124 455,124 455,124 456,123 456,123 457,122 457,122 458,122 458,121 459,121 459,121 460,120 460,120 461,120 461,119 462,119 462,118 463,118 463,118 463,117 464,117 464,117 465,116 465,116 466,116 466,115 467,115 467,115 468,114 468,114 469,114 469,113 470,113 470,113 471,112 471,112 472,112 472,111 473,111 473,111 474,110 474,110 475,110 475,109 476,109 476,109 477,108 477,108 478,108 478,107 479,107 479,107 480,106 481,106 481,106 482,105 482,105 483,105 483,104 484,104 484,104 485,103 485,103 486,103 486,102 487,102 487,102 488,102 488,101 489,101 489,101 490,100 490,100 491,100 491,99 492,99 492,99 493,98 494,98 494,98 495,98 495,97 496,97 496,97 497,96 497,96 498,96 498,96 499,95 499,95 500,95 500,94 501,94 501,94 502,94 503,93 503,93 504,93 504,93 505,92 505,92 506,92 506,91 507,91 507,91 508,91 509,90 509,90 510,90 510,90 511,89 511,89 512,89 512,89 513,88 513,88 514,88 515,88 515,87 516,87 516,87 517,86 517,86 518,86 518,86 519,86 519,85 520,85 521,85 521,85 522,84 522,84 523,84 523,84 524,83 524,83 525,83 526,83 526,82 527,82 527,82 528,82 528,82 529,81 530,81 530,81 531,81 531,80 532,80 532,80 533,80 533,80 534,79 535,79 535,79 536,79 536,78 537,78 537,78 538,78 539,78 539,77 540,77 540,77 541,77 541,77 542,76 543,76 543,76 544,76 544,76 545,75 545,75 546,75 547,75 547,75 548,75 548,74 549,74 549,74 550,74 551,74 551,73 552,73 552,73 553,73 554,73 554,73 555,72 555,72 556,72 556,72 557,72 558,72 558,71 559,71 559,71 560,71 560,71 561,71 562,70 562,70 563,70 563,70 564,70 565,70 565,69 566,69 566,69 567,69 567,69 568,69 569,69 569,68 570,68 570,68 571,68 572,68 572,68 573,68 573,67 574,67 575,67 575,67 576,67 576,67 577,67 578,67 578,66 579,66 579,66 580,66 580,66 581,66 582,66 582,66 583,65 583,65 584,65 585,65 585,65 586,65 586,65 587,65 588,65 588,65 589,64 589,64 590,64 591,64 591,64 592,64 592,64 593,64 594,64 594,64 595,63 595,63 596,63 597,63 597,63 598,63 598,63 599,63 600,63 600,63 601,63 601,63 602,62 603,62 603,62 604,62 604,62 605,62 606,62 606,62 607,62 607,62 608,62 609,62 609,62 610,62 610,61 611,61 612,61 612,61 613,61 613,61 614,61 615,61 615,61 616,61 616,61 617,61 618,61 618,61 619,61 619,61 620,61 621,61 621,61 622,61 622,61 623,60 624,60 624,60 625,60 625,60 626,60 627,60 627,60 628,60 628,60 629,60 630,60 630,60 631,60 631,60 632,60 633,60 633,60 634,60 634,60 635,60 636,60 636,60 637,60 638,60 638,60 639,60 639,60 640,60 640,60 "/>
<text x="524" y="67" dy="0.76em" text-anchor="start" font-family="sans-serif" font-size="40.32258064516129" opacity="1" fill="#FF9800">

</text>
<text x="748" y="286" dy="0.76em" text-anchor="start" font-family="sans-serif" font-size="19.35483870967742" opacity="1" fill="#FFFFFF">
36.0%
</text>
<text x="607" y="500" dy="0.76em" text-anchor="start" font-family="sans-serif" font-size="19.35483870967742" opacity="1" fill="#FFFFFF">
29.0%
</text>
<text x="463" y="336" dy="0.76em" text-anchor="start" font-family="sans-serif" font-size="19.35483870967742" opacity="1" fill="#FFFFFF">
23.0%
</text>
<text x="557" y="211" dy="0.76em" text-anchor="start" font-family="sans-serif" font-size="19.35483870967742" opacity="1" fill="#FFFFFF">
12.0%
</text>
</svg>
